G75*
%MOIN*%
%OFA0B0*%
%FSLAX25Y25*%
%IPPOS*%
%LPD*%
%AMOC8*
5,1,8,0,0,1.08239X$1,22.5*
%
%ADD10C,0.00800*%
%ADD11C,0.00700*%
%ADD12R,0.05906X0.05118*%
%ADD13R,0.05118X0.05906*%
%ADD14R,0.05118X0.06299*%
%ADD15R,0.06299X0.05118*%
%ADD16R,0.03937X0.05512*%
%ADD17R,0.05512X0.03937*%
%ADD18R,0.02600X0.08000*%
%ADD19C,0.07400*%
%ADD20C,0.06600*%
%ADD21C,0.06500*%
%ADD22R,0.02756X0.02756*%
%ADD23R,0.07800X0.02100*%
%ADD24R,0.02362X0.08661*%
%ADD25C,0.01600*%
%ADD26C,0.03962*%
%ADD27C,0.01969*%
%ADD28C,0.01000*%
%ADD29C,0.04000*%
%ADD30C,0.01181*%
%ADD31C,0.02400*%
%ADD32C,0.01772*%
D10*
X0022200Y0012200D02*
X0028339Y0012200D01*
X0022200Y0012200D02*
X0022200Y0021408D01*
X0234700Y0164700D02*
X0237769Y0164700D01*
X0236235Y0164700D02*
X0236235Y0173908D01*
X0237769Y0173908D02*
X0234700Y0173908D01*
D11*
X0237286Y0030057D02*
X0239921Y0027421D01*
X0239921Y0022150D01*
X0239921Y0026103D02*
X0234650Y0026103D01*
X0234650Y0027421D02*
X0237286Y0030057D01*
X0234650Y0027421D02*
X0234650Y0022150D01*
X0014921Y0168468D02*
X0013603Y0167150D01*
X0010968Y0167150D01*
X0009650Y0168468D01*
X0010968Y0171103D02*
X0013603Y0171103D01*
X0014921Y0169786D01*
X0014921Y0168468D01*
X0010968Y0171103D02*
X0009650Y0172421D01*
X0009650Y0173739D01*
X0010968Y0175057D01*
X0013603Y0175057D01*
X0014921Y0173739D01*
D12*
X0079300Y0163040D03*
X0079300Y0155560D03*
X0094300Y0158060D03*
X0094300Y0165540D03*
X0156800Y0170560D03*
X0156800Y0178040D03*
X0179300Y0110540D03*
X0179300Y0103060D03*
X0189300Y0095540D03*
X0189300Y0088060D03*
X0201800Y0068040D03*
X0201800Y0060560D03*
X0214300Y0060560D03*
X0214300Y0068040D03*
X0116800Y0038040D03*
X0116800Y0030560D03*
X0071800Y0063060D03*
X0071800Y0070540D03*
X0054300Y0045540D03*
X0054300Y0038060D03*
D13*
X0055540Y0054300D03*
X0048060Y0054300D03*
X0038040Y0069300D03*
X0030560Y0069300D03*
X0020540Y0054300D03*
X0013060Y0054300D03*
X0173060Y0176800D03*
X0180540Y0176800D03*
X0065540Y0179300D03*
X0058060Y0179300D03*
D14*
X0050540Y0169300D03*
X0043060Y0169300D03*
X0045560Y0154300D03*
X0053040Y0154300D03*
X0033040Y0149300D03*
X0025560Y0149300D03*
X0023060Y0129300D03*
X0030540Y0129300D03*
X0045560Y0124300D03*
X0053040Y0124300D03*
X0060560Y0099300D03*
X0068040Y0099300D03*
X0055540Y0069300D03*
X0048060Y0069300D03*
X0038040Y0054300D03*
X0030560Y0054300D03*
X0020540Y0069300D03*
X0013060Y0069300D03*
X0065560Y0054300D03*
X0073040Y0054300D03*
X0110560Y0069300D03*
X0118040Y0069300D03*
X0130560Y0069300D03*
X0138040Y0069300D03*
X0145560Y0056800D03*
X0153040Y0056800D03*
X0140540Y0131800D03*
X0133060Y0131800D03*
X0118040Y0134300D03*
X0110560Y0134300D03*
X0133060Y0149300D03*
X0140540Y0149300D03*
D15*
X0161800Y0125540D03*
X0161800Y0118060D03*
X0106800Y0158060D03*
X0106800Y0165540D03*
X0066800Y0163040D03*
X0066800Y0155560D03*
X0091800Y0060540D03*
X0091800Y0053060D03*
X0101800Y0048040D03*
X0101800Y0040560D03*
D16*
X0075540Y0109969D03*
X0068060Y0109969D03*
X0071800Y0118631D03*
D17*
X0152469Y0133060D03*
X0161131Y0136800D03*
X0152469Y0140540D03*
D18*
X0144300Y0112350D03*
X0139300Y0112350D03*
X0134300Y0112350D03*
X0129300Y0112350D03*
X0124300Y0112350D03*
X0119300Y0112350D03*
X0114300Y0112350D03*
X0114300Y0086250D03*
X0119300Y0086250D03*
X0124300Y0086250D03*
X0129300Y0086250D03*
X0134300Y0086250D03*
X0139300Y0086250D03*
X0144300Y0086250D03*
X0049300Y0086250D03*
X0044300Y0086250D03*
X0039300Y0086250D03*
X0034300Y0086250D03*
X0029300Y0086250D03*
X0024300Y0086250D03*
X0019300Y0086250D03*
X0019300Y0112350D03*
X0024300Y0112350D03*
X0029300Y0112350D03*
X0034300Y0112350D03*
X0039300Y0112350D03*
X0044300Y0112350D03*
X0049300Y0112350D03*
D19*
X0126800Y0043000D02*
X0126800Y0035600D01*
X0136800Y0035600D02*
X0136800Y0043000D01*
X0146800Y0043000D02*
X0146800Y0035600D01*
X0156800Y0035600D02*
X0156800Y0043000D01*
X0166800Y0043000D02*
X0166800Y0035600D01*
X0176800Y0035600D02*
X0176800Y0043000D01*
D20*
X0179300Y0079300D03*
X0179300Y0119300D03*
X0086800Y0124300D03*
X0086800Y0084300D03*
D21*
X0176800Y0164300D03*
X0196800Y0164300D03*
D22*
X0087942Y0076859D03*
X0080658Y0074300D03*
X0087942Y0071741D03*
D23*
X0199600Y0076800D03*
X0199600Y0081800D03*
X0199600Y0086800D03*
X0199600Y0091800D03*
X0199600Y0096800D03*
X0199600Y0101800D03*
X0199600Y0106800D03*
X0199600Y0111800D03*
X0219000Y0111800D03*
X0219000Y0106800D03*
X0219000Y0101800D03*
X0219000Y0096800D03*
X0219000Y0091800D03*
X0219000Y0086800D03*
X0219000Y0081800D03*
X0219000Y0076800D03*
D24*
X0206800Y0042036D03*
X0201800Y0042036D03*
X0196800Y0042036D03*
X0191800Y0042036D03*
X0191800Y0021564D03*
X0196800Y0021564D03*
X0201800Y0021564D03*
X0206800Y0021564D03*
D25*
X0201800Y0060560D02*
X0214300Y0060560D01*
X0190560Y0088060D02*
X0189300Y0088060D01*
X0190560Y0088060D02*
X0194300Y0091800D01*
X0199600Y0091800D01*
X0199600Y0096800D02*
X0191800Y0096800D01*
X0190540Y0095540D01*
X0189300Y0095540D01*
X0219000Y0106800D02*
X0219000Y0111800D01*
X0219000Y0114600D01*
X0209300Y0124300D01*
X0173631Y0124300D01*
X0161131Y0136800D01*
X0154300Y0131229D02*
X0154300Y0126800D01*
X0160540Y0126800D01*
X0161800Y0125540D01*
X0154300Y0131229D02*
X0152469Y0133060D01*
X0151229Y0139300D02*
X0146800Y0139300D01*
X0140540Y0133040D01*
X0140540Y0131800D01*
X0134300Y0131800D02*
X0133060Y0131800D01*
X0134300Y0131800D02*
X0134300Y0112350D01*
X0124300Y0112350D02*
X0124300Y0106800D01*
X0114300Y0096800D01*
X0111800Y0096800D01*
X0103000Y0088000D01*
X0102800Y0088000D01*
X0114300Y0086250D02*
X0114300Y0079300D01*
X0118040Y0075560D01*
X0118040Y0069300D01*
X0110560Y0069300D02*
X0109300Y0068040D01*
X0109300Y0054300D01*
X0103040Y0048040D01*
X0101800Y0048040D01*
X0121800Y0061800D02*
X0139300Y0061800D01*
X0138040Y0063060D01*
X0138040Y0069300D01*
X0130560Y0069300D02*
X0129300Y0070560D01*
X0129300Y0074300D01*
X0131800Y0076800D01*
X0129300Y0079300D01*
X0129300Y0086250D01*
X0124300Y0086250D02*
X0124300Y0091800D01*
X0129300Y0096800D01*
X0131800Y0076800D02*
X0139300Y0076800D01*
X0110560Y0069300D02*
X0109900Y0069960D01*
X0071800Y0063060D02*
X0071800Y0055540D01*
X0073040Y0054300D01*
X0065560Y0054300D02*
X0055540Y0054300D01*
X0054300Y0053060D01*
X0054300Y0045540D01*
X0054300Y0038060D02*
X0048060Y0038040D01*
X0020560Y0038040D01*
X0011800Y0046800D01*
X0011800Y0053040D01*
X0013060Y0054300D01*
X0013060Y0069300D01*
X0019300Y0071800D02*
X0020540Y0070560D01*
X0020540Y0069300D01*
X0019300Y0071800D02*
X0019300Y0086250D01*
X0038900Y0088900D02*
X0039300Y0089300D01*
X0044300Y0086250D02*
X0044300Y0079300D01*
X0048060Y0075540D01*
X0048060Y0069300D01*
X0048060Y0054300D01*
X0055540Y0054300D02*
X0055540Y0069300D01*
X0055540Y0073060D01*
X0049300Y0079300D01*
X0049300Y0086250D01*
X0036800Y0070540D02*
X0038040Y0069300D01*
X0066131Y0109969D02*
X0068060Y0109969D01*
X0066131Y0109969D02*
X0061800Y0114300D01*
X0061800Y0139300D01*
X0054300Y0146800D01*
X0054300Y0153040D01*
X0053040Y0154300D01*
X0046100Y0153760D02*
X0046100Y0148300D01*
X0057200Y0137200D01*
X0057200Y0134700D01*
X0053040Y0124300D02*
X0054300Y0123040D01*
X0054300Y0119300D01*
X0049700Y0114700D01*
X0049700Y0113200D01*
X0034400Y0113200D02*
X0034400Y0123100D01*
X0024300Y0130540D02*
X0023060Y0129300D01*
X0046100Y0153760D02*
X0045560Y0154300D01*
X0050540Y0168060D02*
X0050540Y0169300D01*
X0086800Y0124300D02*
X0111800Y0124300D01*
X0151229Y0139300D02*
X0152469Y0140540D01*
D26*
X0154300Y0126800D03*
X0124300Y0146800D03*
X0094300Y0174300D03*
X0071800Y0174300D03*
X0056800Y0161800D03*
X0036800Y0161800D03*
X0024300Y0099300D03*
X0036800Y0076800D03*
X0061800Y0091800D03*
X0094300Y0069300D03*
X0101800Y0071800D03*
X0109300Y0046800D03*
X0119300Y0046800D03*
X0139300Y0061800D03*
X0149300Y0071800D03*
X0159300Y0069300D03*
X0161800Y0079300D03*
X0156800Y0094300D03*
X0136800Y0096800D03*
X0129300Y0096800D03*
X0121800Y0096800D03*
X0139300Y0076800D03*
X0091800Y0044300D03*
X0076800Y0041800D03*
X0184300Y0031800D03*
X0226800Y0071800D03*
X0229300Y0086800D03*
D27*
X0226800Y0086800D01*
X0224300Y0081800D02*
X0219000Y0081800D01*
X0224300Y0081800D02*
X0226800Y0079300D01*
X0226800Y0071800D01*
X0236800Y0071800D02*
X0236800Y0104300D01*
X0234300Y0106800D01*
X0219000Y0106800D01*
X0214300Y0101800D02*
X0211800Y0104300D01*
X0211800Y0111800D01*
X0206800Y0116800D01*
X0181800Y0116800D01*
X0179300Y0119300D01*
X0180560Y0111800D02*
X0179300Y0110540D01*
X0180560Y0111800D02*
X0199600Y0111800D01*
X0199600Y0106800D02*
X0204300Y0106800D01*
X0206800Y0104300D01*
X0206800Y0099300D01*
X0211800Y0094300D01*
X0211800Y0070540D01*
X0214300Y0068040D01*
X0206800Y0071800D02*
X0203040Y0068040D01*
X0201800Y0068040D01*
X0206800Y0071800D02*
X0206800Y0084300D01*
X0204300Y0086800D01*
X0199600Y0086800D01*
X0199600Y0081800D02*
X0181800Y0081800D01*
X0179300Y0079300D01*
X0171800Y0076800D02*
X0171800Y0109300D01*
X0163040Y0118060D01*
X0161800Y0118060D01*
X0160560Y0119300D01*
X0154300Y0119300D01*
X0151800Y0121800D01*
X0141800Y0121800D01*
X0139300Y0119300D01*
X0139300Y0112350D01*
X0139300Y0116800D01*
X0144300Y0112350D02*
X0144850Y0111800D01*
X0156800Y0111800D01*
X0161800Y0106800D01*
X0161800Y0079300D01*
X0171800Y0076800D02*
X0196800Y0051800D01*
X0219300Y0051800D01*
X0224300Y0046800D01*
X0224300Y0011800D01*
X0221800Y0009300D01*
X0149300Y0009300D01*
X0136800Y0021800D01*
X0136800Y0039300D01*
X0141800Y0046800D02*
X0131800Y0056800D01*
X0129300Y0056800D01*
X0126800Y0054300D01*
X0126800Y0046800D01*
X0119300Y0046800D01*
X0126800Y0046800D02*
X0126800Y0039300D01*
X0118060Y0039300D01*
X0116800Y0038040D01*
X0109300Y0046800D02*
X0121800Y0059300D01*
X0121800Y0061800D01*
X0119300Y0064300D01*
X0119300Y0068040D01*
X0118040Y0069300D01*
X0109900Y0069960D02*
X0109900Y0071200D01*
X0104300Y0076800D01*
X0104300Y0086500D01*
X0102800Y0088000D01*
X0096800Y0076918D02*
X0096741Y0076859D01*
X0101800Y0071800D01*
X0096741Y0076859D02*
X0087942Y0076859D01*
X0080658Y0074300D02*
X0080658Y0073158D01*
X0079300Y0071800D01*
X0079300Y0064300D01*
X0081800Y0061800D01*
X0081800Y0046800D01*
X0076800Y0041800D01*
X0091800Y0044300D02*
X0091800Y0053060D01*
X0091800Y0060540D02*
X0090540Y0061800D01*
X0081800Y0061800D01*
X0071800Y0070540D02*
X0056800Y0085540D01*
X0056800Y0091800D01*
X0044300Y0104300D01*
X0044300Y0112350D01*
X0044300Y0124300D01*
X0045560Y0124300D01*
X0053040Y0124300D02*
X0053040Y0130560D01*
X0036800Y0146800D01*
X0035540Y0146800D01*
X0033040Y0149300D01*
X0025560Y0149300D02*
X0024300Y0149300D01*
X0021800Y0146800D01*
X0021800Y0133040D01*
X0024300Y0130540D01*
X0023060Y0129300D02*
X0023060Y0125540D01*
X0029300Y0119300D01*
X0029300Y0112350D01*
X0024300Y0112350D02*
X0024300Y0116800D01*
X0014300Y0126800D01*
X0014300Y0156800D01*
X0019300Y0161800D01*
X0036800Y0161800D01*
X0043060Y0156800D02*
X0043060Y0169300D01*
X0041800Y0170560D01*
X0041800Y0171800D01*
X0047100Y0177100D01*
X0057800Y0177100D01*
X0065540Y0179300D02*
X0065540Y0164300D01*
X0066800Y0163040D01*
X0066800Y0155560D02*
X0063040Y0155560D01*
X0056800Y0161800D01*
X0056800Y0166800D01*
X0055540Y0168060D01*
X0050540Y0168060D01*
X0043060Y0156800D02*
X0045560Y0154300D01*
X0066800Y0155560D02*
X0066800Y0148900D01*
X0070500Y0145200D01*
X0066800Y0155560D02*
X0079300Y0155560D01*
X0079300Y0163040D02*
X0085560Y0163040D01*
X0092420Y0156180D01*
X0094300Y0158060D01*
X0106800Y0158060D01*
X0108060Y0156800D01*
X0116800Y0156800D01*
X0138040Y0178040D01*
X0156800Y0178040D01*
X0171820Y0178040D01*
X0173060Y0176800D01*
X0180540Y0176800D02*
X0191800Y0176800D01*
X0196800Y0171800D01*
X0196800Y0164300D01*
X0176800Y0164300D02*
X0159300Y0164300D01*
X0156800Y0166800D01*
X0156800Y0170560D01*
X0150000Y0149200D02*
X0140600Y0149200D01*
X0133060Y0149300D02*
X0126800Y0149300D01*
X0124300Y0146800D01*
X0124300Y0126800D01*
X0129300Y0121800D01*
X0129300Y0112350D01*
X0119300Y0112350D02*
X0119300Y0133040D01*
X0118040Y0134300D01*
X0110560Y0134300D02*
X0105460Y0139400D01*
X0096700Y0139400D01*
X0086800Y0150560D02*
X0092420Y0156180D01*
X0086800Y0150560D02*
X0086800Y0124300D01*
X0076800Y0116800D02*
X0074300Y0119300D01*
X0072469Y0119300D01*
X0071800Y0118631D01*
X0076800Y0116800D02*
X0106800Y0116800D01*
X0108200Y0118200D01*
X0108200Y0119500D01*
X0114300Y0112350D02*
X0113750Y0111800D01*
X0096800Y0111800D01*
X0096800Y0076918D01*
X0091859Y0071741D02*
X0087942Y0071741D01*
X0091859Y0071741D02*
X0094300Y0069300D01*
X0119300Y0086250D02*
X0119300Y0094300D01*
X0121800Y0096800D01*
X0134300Y0094300D02*
X0136800Y0096800D01*
X0134300Y0094300D02*
X0134300Y0086250D01*
X0139300Y0086250D02*
X0139300Y0091800D01*
X0141800Y0094300D01*
X0156800Y0094300D01*
X0144300Y0086250D02*
X0144300Y0069300D01*
X0151800Y0061800D01*
X0151800Y0058040D01*
X0153040Y0056800D01*
X0156800Y0053040D01*
X0156800Y0039300D01*
X0166800Y0039300D02*
X0166800Y0054300D01*
X0149300Y0071800D01*
X0159300Y0069300D02*
X0164300Y0069300D01*
X0184300Y0049300D01*
X0194300Y0049300D01*
X0191800Y0042036D02*
X0179536Y0042036D01*
X0176800Y0039300D01*
X0184300Y0031800D02*
X0184300Y0026800D01*
X0181800Y0024300D01*
X0154300Y0024300D01*
X0146800Y0031800D01*
X0146800Y0039300D01*
X0141800Y0031800D02*
X0141800Y0024300D01*
X0151800Y0014300D01*
X0194300Y0014300D01*
X0196800Y0016800D01*
X0196800Y0021564D01*
X0191800Y0021564D02*
X0191800Y0031800D01*
X0194300Y0034300D01*
X0214300Y0060560D02*
X0215540Y0061800D01*
X0226800Y0061800D01*
X0236800Y0071800D01*
X0219000Y0101800D02*
X0214300Y0101800D01*
X0199600Y0101800D02*
X0196800Y0101800D01*
X0195540Y0103060D01*
X0179300Y0103060D01*
X0140560Y0061800D02*
X0139300Y0061800D01*
X0140560Y0061800D02*
X0145560Y0056800D01*
X0101800Y0040560D02*
X0093040Y0031800D01*
X0056800Y0031800D01*
X0054300Y0034300D01*
X0054300Y0038060D01*
X0044300Y0044300D02*
X0048060Y0048060D01*
X0048060Y0054300D01*
X0038040Y0054300D02*
X0036800Y0055540D01*
X0036800Y0061800D01*
X0034300Y0064300D01*
X0031800Y0064300D01*
X0030560Y0065540D01*
X0030560Y0069300D01*
X0030560Y0075540D01*
X0029300Y0076800D01*
X0026800Y0076800D01*
X0024300Y0079300D01*
X0024300Y0086250D01*
X0029900Y0087100D02*
X0029900Y0094900D01*
X0031800Y0096800D01*
X0031800Y0101000D01*
X0031700Y0101100D01*
X0031800Y0096800D02*
X0036800Y0096800D01*
X0039300Y0094300D01*
X0039300Y0089300D01*
X0036800Y0076800D02*
X0036800Y0070540D01*
X0026800Y0061800D02*
X0030560Y0058040D01*
X0030560Y0054300D01*
X0026800Y0061800D02*
X0021800Y0061800D01*
X0019300Y0064300D01*
X0019300Y0068060D01*
X0020540Y0069300D01*
X0020540Y0054300D02*
X0021800Y0053040D01*
X0021800Y0046800D01*
X0024300Y0044300D01*
X0044300Y0044300D01*
X0061800Y0091800D02*
X0061800Y0098060D01*
X0060560Y0099300D01*
X0068040Y0099300D02*
X0068060Y0099320D01*
X0068060Y0109969D01*
X0075800Y0110500D02*
X0075800Y0110800D01*
X0076800Y0111800D01*
X0096800Y0111800D01*
X0150000Y0149200D02*
X0150600Y0148600D01*
X0106800Y0165540D02*
X0094300Y0165540D01*
X0094300Y0174300D01*
X0071800Y0174300D02*
X0071800Y0176800D01*
X0069700Y0178900D01*
X0065900Y0178900D01*
X0039600Y0135900D02*
X0039300Y0135600D01*
X0039300Y0112350D01*
X0024300Y0099300D02*
X0019300Y0104300D01*
X0019300Y0112350D01*
X0030800Y0129400D02*
X0030800Y0137500D01*
D28*
X0030800Y0129400D02*
X0030540Y0129300D01*
X0034400Y0113200D02*
X0034300Y0112350D01*
X0024300Y0112350D02*
X0023600Y0113200D01*
X0049300Y0112350D02*
X0049700Y0113200D01*
X0071800Y0118631D02*
X0072200Y0119500D01*
X0074900Y0110500D02*
X0075540Y0109969D01*
X0075800Y0110500D01*
X0086800Y0124300D02*
X0087500Y0124000D01*
X0113600Y0113200D02*
X0114300Y0112350D01*
X0113600Y0112300D01*
X0133060Y0131800D02*
X0134300Y0130560D01*
X0140540Y0131800D02*
X0142371Y0129969D01*
X0140600Y0149200D02*
X0140540Y0149300D01*
X0133060Y0149300D02*
X0132500Y0149200D01*
X0106800Y0158060D02*
X0106400Y0158200D01*
X0106800Y0165540D02*
X0106400Y0166300D01*
X0065900Y0178900D02*
X0065540Y0179300D01*
X0058060Y0179300D02*
X0057800Y0178900D01*
X0057800Y0177100D01*
X0045560Y0154300D02*
X0046100Y0153700D01*
X0038900Y0088900D02*
X0038900Y0087100D01*
X0039300Y0086250D01*
X0029900Y0087100D02*
X0029300Y0086250D01*
X0013060Y0054300D02*
X0012800Y0053800D01*
X0047900Y0053800D02*
X0048060Y0054300D01*
D29*
X0102800Y0088000D03*
X0108200Y0119500D03*
X0096700Y0139400D03*
X0070500Y0145200D03*
X0057200Y0134700D03*
X0039600Y0135900D03*
X0030800Y0137500D03*
X0034400Y0123100D03*
X0031700Y0101100D03*
X0150600Y0148600D03*
D30*
X0194300Y0049300D02*
X0194300Y0034300D01*
X0141800Y0031800D02*
X0141800Y0046800D01*
D31*
X0196800Y0042036D02*
X0201800Y0042036D01*
X0201800Y0021564D01*
X0196800Y0021564D01*
X0114300Y0112350D02*
X0114300Y0121800D01*
X0111800Y0124300D01*
X0111500Y0124000D01*
X0087500Y0124000D01*
D32*
X0219000Y0086800D02*
X0226800Y0086800D01*
M02*
