%
M48
M72
T01C0.02362
T02C0.02400
T03C0.02756
T04C0.04400
%
T01
X14300Y14300
X76800Y41800
X91800Y44300
X109300Y46800
X119300Y46800
X139300Y61800
X149300Y71800
X159300Y69300
X161800Y79300
X156800Y94300
X136800Y96800
X129300Y96800
X121800Y96800
X139300Y76800
X101800Y71800
X94300Y69300
X61800Y91800
X36800Y76800
X24300Y99300
X36800Y161800
X56800Y161800
X71800Y174300
X94300Y174300
X124300Y146800
X154300Y126800
X229300Y86800
X226800Y71800
X184300Y31800
X234300Y14300
X234300Y184300
X14300Y184300
T02
X70500Y145200
X57200Y134700
X39600Y135900
X30800Y137500
X34400Y123100
X31700Y101100
X96700Y139400
X108200Y119500
X150600Y148600
X102800Y88000
T03
X176800Y164300
X196800Y164300
T04
X179300Y119300
X179300Y79300
X176800Y39300
X166800Y39300
X156800Y39300
X146800Y39300
X136800Y39300
X126800Y39300
X86800Y84300
X86800Y124300
M30
